<svg id="Capa_1" data-name="Capa 1" xmlns="http://www.w3.org/2000/svg" viewBox="0 0 113.02 109.8"><defs><style>.cls-1{fill-rule:evenodd;}</style></defs><title>_</title><path class="cls-1" d="M55.35,0A57,57,0,0,1,92.3,12.93c13.26,10.91,18.48,26.33,20.24,43,.81,7.65.27,15.74-2.86,22.85C106.74,85.44,101.49,91.41,95.9,96a62.7,62.7,0,0,1-22,11.69,49.54,49.54,0,0,1-18.47,1.93C41,108.25,28.61,102.28,17.73,92.84l-.05,0-.05-.06C14.86,89.34,11.9,86,9.42,82.37A50,50,0,0,1,4,71.85C-.13,61.16-.44,57.58,1.21,46.22,2.9,34.56,6.58,22.51,15.54,14.32,25.11,5.58,42.47-.28,55.35,0Zm0,.86C43,.59,25.73,6.18,16.12,15,8.18,22.22,4,33,2.06,46.35.39,57.84.75,61.05,4.78,71.54,8.29,80.67,12,84.42,18.3,92.18c10.15,8.82,22.26,15.16,37.25,16.57,22.81,2.14,46.15-14.17,53.34-30.32,2.9-6.78,3.62-14.58,2.79-22.42C109.79,38.1,104,23.71,91.75,13.59A56.14,56.14,0,0,0,55.35.87Z"/><path class="cls-1" d="M35.16,35.05c0,.25.16,0,.06,0S35.16,34.76,35.16,35.05Z"/><polygon class="cls-1" points="16.97 51.83 16.97 51.73 16.86 51.81 16.97 51.83"/><path class="cls-1" d="M27,46.7s0,0,0,0h0S27,46.69,27,46.7Z"/><path class="cls-1" d="M33.65,37.46l0,0S33.64,37.45,33.65,37.46Z"/><path class="cls-1" d="M26.12,40.07l0,0S26.11,40.06,26.12,40.07Z"/><path class="cls-1" d="M26.12,42.78l0,0S26.11,42.77,26.12,42.78Z"/><path d="M54.13,29.57c8.26-2.58,9.25,2.69,2.94,7.36-4.36,3.22-12,6.44-15.09,10.78,5.79,3,50.58.31,50.89,8,.37,9.2-37.88,7.13-49.41,6.53,3.61,4.51,8.62,7.41,12.45,11.71,4.36,4.89,2.34,8-4.4,6.14-10.57-2.92-18.74-14-28.2-19.34C12.47,54.6,19.79,48.11,27.43,43.4,35.84,38.21,44.69,32.51,54.13,29.57Z"/><path class="cls-1" d="M95.85,18.47c10.14,9.15,18.34,19.92,17,34.22a63,63,0,0,1-5.77,20.49,71,71,0,0,1-5.87,10.89A63.13,63.13,0,0,1,93,93.57,47.39,47.39,0,0,1,71.39,106c-16.61,4.23-33.3,2.93-48.3-5.77C16.38,96.33,9.88,90.43,6,83.72A44.26,44.26,0,0,1,0,60.56c.36-13.4,6.06-27.47,14.45-37.88C18.68,17.44,23.12,11.9,28.65,8c7.64-5.4,16.11-6.71,25.29-6.33A62.27,62.27,0,0,1,66.7,3.3C77,5.89,88.2,11,95.85,18.47ZM92.41,93c7-6.81,9.93-11.32,13.91-20.13A61.54,61.54,0,0,0,112,52.61C113.08,41,108.08,30.66,95.26,19.1,88.33,12.3,77.72,7,66.49,4.13A62.55,62.55,0,0,0,53.9,2.53C33,1.66,25.4,10.47,15.13,23.22,6.54,33.88,1.21,47.85.88,60.58a43.71,43.71,0,0,0,5.83,22.7,48.05,48.05,0,0,0,16.81,16.2c15.57,9,32.23,9.61,47.66,5.68A46.48,46.48,0,0,0,92.41,93Z"/></svg>