<svg xmlns="http://www.w3.org/2000/svg" viewBox="0 0 317.29 60"><defs><style>.cls-1{fill:#fbffff;fill-rule:evenodd;}</style></defs><title>boton-sandwiches</title><g id="Capa_2" data-name="Capa 2"><g id="Capa_2-2" data-name="Capa 2"><path class="cls-1" d="M314.85,41.28l-3.67,0a30.46,30.46,0,0,0-6.84.28,9.7,9.7,0,0,0-3.43.23l-.69-.63h0a31.21,31.21,0,0,0,6.8-.58c-2.57,0-5.16-.19-7.52.35-.06,0,0,0-.09,0s0,0,0,0l-2-.33L298,40a33.18,33.18,0,0,1,4.73-1,4.41,4.41,0,0,0,2.46-.4,4.37,4.37,0,0,0-2.25.14c.05-.18-1.29-.38.14-.55,2-.24.64-.42-.12-.6l-4.21-.89c-.65-.11-1.5.07-2-.26,2.76-.4,4.53-1.12,4.28-2.48,1.94-.09,1.43-1.56,4-1.33-.72-.14-1.43-.28-2.12-.4l2-.41a5.29,5.29,0,0,0,3.08-.47c-1.75-.12-3.44-.51-5.2,0-.57-.11-1.38.06-1.69-.32a29,29,0,0,0,4.86-.88l1.14-.08c1.54-.44,4.22,0,4.79-1.19,0-.08,0-.19,0-.3l.94-.57a4.43,4.43,0,0,1,.62-.3c2.15-.22,1.12-.76.65-1.22-1.46-1.12-4.13-.7-6.31-.9-.2.06-.07.13,0,.2h0a.65.65,0,0,1,0-.2l-.8-.6c.06-.27.09-.52-.45-.71.89-.52.6-.78-.87-.81a4.38,4.38,0,0,0,0-.5v0h0c.36-.07,1.52-.09.54-.34a5.81,5.81,0,0,0-2.9.23l.42.06h0c-.14,0-.21-.11-.4-.06-.41,0-.84.06-1.24.09l-1.35-.09c.47-.17.93-.36,1.4-.55a16,16,0,0,0,3.93-.53c.47-.11,1.25,0,1.31-.36.1-.57.27-.55,1.13-.86s2.56-.25,3.08-.77c-.15-.67-2.64.18-2.31-.75.8-.22,1.33-.51,1.37-.93.75-.16.75-.38.17-.62a10.25,10.25,0,0,0,.27-1.72c0-.59.16-1.23-1.89-1.25a1.66,1.66,0,0,0-.6,0c-2.63-1-5.27-.38-7.9,0-1-.59-1-.61.39-.82,1.23-.21,2.84-.11,3.2-.89,1.83-.33,4.08-.22,5.62-.9l4.85-.79a24.29,24.29,0,0,0-4.73-1.38c-.06-.39-.34-.71-1.5-.62-1.68-.27-2.43-.62-2-1.54.63-1.22-2-2.57-5.12-2.93a12,12,0,0,0-3.58.27h0a30.69,30.69,0,0,0-5.55.31h-1.28c-.15-.83-2.34-.3-3.3-.83,4.62-.77,9.68-.49,14.7-1.87-2.92,0-4.84,0-6.74,0-2.77,0-5.64.62-8.28-.24h-.74c-1.14,0-2.3,0-3.46,0a1.66,1.66,0,0,0-.55,0,41,41,0,0,0-7.17-.57A49.66,49.66,0,0,0,267.13,1,127.36,127.36,0,0,0,249.07.37a24.71,24.71,0,0,0-5.3,0h-1.68a9.8,9.8,0,0,0-3.33-.29h-20q-9.63-.18-19.29.07c-2.89.08-5.87-.34-8.7.23l-.63.28a20.9,20.9,0,0,0-8.65-.31l.25.1h-.13l.64.25h0a1.19,1.19,0,0,0-.64-.25l-.12-.1L180.11.4C178,0,175.93.3,173.84.35h0c-1.11,0-2.21,0-3.33,0S168.23.2,167.07.18c-10.14,0-20.29-.06-30.43,0-3.83,0-7.69-.15-11.5.19-5.78,0-11.53.15-17.28.4a41.68,41.68,0,0,0-6.53.24l6.4,0h0a36,36,0,0,0-6.4,0c-1.35,0-2.68,0-4,.09a25.45,25.45,0,0,0-5.18.21h0l-3.88.07a45.6,45.6,0,0,0-6.52.21c-1.1,0-2.21.06-3.32.07a48.55,48.55,0,0,0-7.15.25c-.42,0-.84,0-1.27.06a31.44,31.44,0,0,0-5.76.25,1.14,1.14,0,0,0-.58,0,36.57,36.57,0,0,0-6.47.27c-.65,0-1.28,0-1.93.07h-.73A16.68,16.68,0,0,0,51,2.74c-.05,0-.11,0-.17,0a29.54,29.54,0,0,0-6.26.32h0a56,56,0,0,0-9.14.58h0c-.63,0-1.27,0-1.9.07-1.23.17-2.47.36-3.71.52a1,1,0,0,1,.23.1.64.64,0,0,1,.12.15l-.48,0c0-.11.18-.16.13-.3-3.79.28-7.53.62-11.12,1.23a1.13,1.13,0,0,0-.61,0,2.76,2.76,0,0,0-1.49.16c-2.93.32-5.84.71-8.81,1-2.06.17-2.69.67-2.55,1.48-.85.34-.51.81-.57,1.25h0a3,3,0,0,0-.52,2.4h0a2.72,2.72,0,0,0,0,2.13,1.19,1.19,0,0,0,.48,1.52c-.28.49-.47,1,0,1.47-1.31.8.65,1.91-1.43,2.64a.43.43,0,0,0,.2.07s0,0,0,0l-.16-.09c-.87.09-1.73.2-2,.65-.76.36-.51.82-.61,1.23,0,.19,0,.39-.05.61-1.1,1.59,0,3.2.1,4.8a1.56,1.56,0,0,0,.68,0H.59c.24.68.48,1.38.7,2.08h0c.23.5.45,1,.65,1.51,0,.4.42.69,1.16.92l0,.84c-1,.61-2,1.19,1,1.23A2,2,0,0,1,4,33.13h.11c-.09.09-.2.17,0,.28,1.25.4,3.61-.57,4.2.62A1,1,0,0,0,9,33.81H9a2.9,2.9,0,0,1,.61-.08h0c0,.08-.11.05-.12.11-.17,0-.32-.09-.49,0L8.24,34l-1.39.06a23.78,23.78,0,0,0-5.14.18c-.78,0-1.45.16-1.51.46S1,35,1.5,35c2.17.1,4.34.17,6.52.24,0,.18,0,.36.05.56H2.92c1.23,1.07,3.64-.13,4.53.78,0,0,.17,0,.24,0-.09.06-.08.11-.22.17h0c-.09-.07-.1-.15,0-.22-1.12.07-2.23.13-3.36.17-.93,0-2.06-.23-2.6.28-.2.15.57.2,1,.25h0c1.94-.22,3.08.66,4.87.64-.21,2.31-1.09,4.63,1,6.88,0,.1.06.22.08.31,0,.32,0,.62-.05.92s-.13.36-.19.54.16.37.22.52,0,.05-.06.07c.46-.23.26-.41-.16-.59-.62.59-.92,1.2-.49,1.86-1.77,1.31-.48,2.9-2.23,4.2-.25.3-.85.59-.18.93-.15.3-.29.61-.43.93h0c0,.37-.08.77-.11,1.15s-.18.7.76.89a1.68,1.68,0,0,1,.6,0c-.46.18-.91.36-1.38.53h0c-.11.61,0,1.06,1.92,1,3.12-.1,6.23-.1,9.36-.12a41.35,41.35,0,0,0,7.72-.23l.19,0,.18-.05a38.87,38.87,0,0,0,6.63.53c3.86.67,8,.36,12,.58,4.66.14,9.3.51,14,.36.24,0,.47,0,.7,0,2,.55,4.24.12,6.32.29h4.18c-.22-.1-.45-.19-.68-.27a.11.11,0,0,0,.07,0,2.17,2.17,0,0,0,.61.29H70l8.33.11c2.53.53,5.18-.07,7.75.14.49.08.65,0,.73-.19h0c1.18-.1,2.59.19,3.44-.4.25,0,.5.06.76.07,2.14.66,4.28,1.24,6.44,0l.7-.27h0l.57-.05,1.34.3c.16.36.52.54,1.53.59a40.89,40.89,0,0,0,6.94-.26c.16-.12,0-.22-.06-.33h.11c0,.11,0,.21,0,.33.68.62,1.88,0,2.76.23l5.1,0c.72,0,1.59.21,2.06-.23h0c2.77.62,5.52.1,8.27,0a10.38,10.38,0,0,0,3.52-.28,3.8,3.8,0,0,0,3.68.36c.3-.16.21-.32-.15-.45h0c0,.14.09.3.14.45.9-.37,1.93.59,2.8-.05a3.82,3.82,0,0,0,.59,0c2.35-.33,4.69.88,7,0,.45,0,.9,0,1.35.05a11.87,11.87,0,0,0,3.52-.06l2.77.11c.94-.2,4.1.2,1.43-1h2.14c2.31.27,4.49.87,7,.61a10.46,10.46,0,0,0,2.85,0h1.19a1.6,1.6,0,0,0,1.66,0c.8-.23,1.84-.44.62-.93v-.23l2.8-.11c1.95-.07,4.05.18,5.75-.46l1.88-.09a14,14,0,0,0,1.46.32c.55.09,1.22.43,1.72.09s-.76-.39-.92-.64l-.09-.08,6.3.1v.17l-1.61.2a2.67,2.67,0,0,0,1.63.71c-.79,1,.47,1,2.16.94l1.41-.29c.74,0,1.58.07,2.05-.31,1.76-.08,3.63.56,5.29-.12-.72-.56-2.48-.28-3.26-.75,1.8.05,2.79-.65,4.3-.88h1.35c0,.59.54.88,2,.88s1.56-.42,1.58-.88c.7,0,1.4,0,2.08-.09.12-.09-.05-.16-.1-.23h.08a.82.82,0,0,1,0,.23c.23,0,.47.06.69.09.27.27-1.07.74.46.84s1.74-.34,1.72-.84a1,1,0,0,1,.63,0c.24.28.49.57.73.87a.76.76,0,0,0,0,.21c-.82.2-2.14-.14-2.75.61a9.38,9.38,0,0,1,4.51.29,4.42,4.42,0,0,0,2.56-.18c1.6-.06,3.27.43,4.84-.06a3.39,3.39,0,0,0,1.92-.26c1.06-.16.82-.56.93-.89.48,0,1,0,1.44-.08a2.77,2.77,0,0,0,1.76-.21c.17,0,.33-.09.5-.13h0a1.47,1.47,0,0,0-.5.13c1.32.46,2.83,0,4.25,0a2.89,2.89,0,0,1,1.45.24c1.09.56-1.45.24-.78.72,1.47-.06,3.32.13,3.08-1,1.84.08,3.36,1.17,5.49.31,1,.09,2,.58,3,0l1.91-.11.72,0c1.76,0,3.8.39,4.94-.59,0-.19,0-.4,0-.59h.1c-.29.18-.45.38-.11.59,1.54.28,3.16.82,4.21-.27.17-.13,0-.21-.12-.3h.12v.3a6.78,6.78,0,0,0,3.63,0l3.37,0a8.68,8.68,0,0,0,2.89-.31h2.05c1.17-.28,2.33-.58,3.5-.89,1.4-.22,2.79.67,4.21,0-.24-.19-.48-.39-.73-.61,0-.1,0-.19,0-.3.79-.23,1.92-.25,2.36-.71-.91-.39-1.59,0-2.36.11h-.68V53.3l1.45-.34h0c1.57-.32,3.45.29,4.89-.32h0c1.18-.47,3.42,0,4.11-.87a10,10,0,0,0,4.22-.31h-4.19a2.44,2.44,0,0,1,1.4-.32l2.8-.52c-1.48-.06-2.24-.11-2.78.23H284c.06-.47,1.68-.94.06-1.41l2.71-.08c.57.22.1.86.88.75,1.19-.18.08-.64,0-1h0A95,95,0,0,0,297.2,48c-2.87-.34-5.07.86-7.54.14a48.7,48.7,0,0,0,5.59-.88c1.59-.19,3.76.13,4.37-.93h0c.37,0,.83-.07.71-.31l2.59.05c1.64.59,2.92-.05,4.37-.27-1.59.1-2.88-.41-4.42-.34a5.49,5.49,0,0,0-2.79.29l-2.71,0c-.26-.09-.5-.19-.73-.29.52,0,1.12,0,1.35-.32A59.75,59.75,0,0,0,307.16,44c.46,0,.91,0,1.38-.05h0a2.8,2.8,0,0,0,1.63-1,4.9,4.9,0,0,0-2.3.22h-.8a7.26,7.26,0,0,0-2.68.27c-1.15,0-2.29,0-3.42,0a6.24,6.24,0,0,0-2.13-.38l.79-.53h0c1.58-.62,3.92.08,5.48-.61,1.8,0,3.6,0,5.4-.07,1.53.2,2.8-.29,4.27-.3.68-.23,2,.13,2.51-.41a3.2,3.2,0,0,0-2.44.2Z"/></g></g></svg>