<svg xmlns="http://www.w3.org/2000/svg" viewBox="0 0 317.29 62"><defs><style>.cls-1{fill:#fbffff;fill-rule:evenodd;}</style></defs><title>boton-ensaladas</title><g id="Capa_2" data-name="Capa 2"><g id="Capa_2-2" data-name="Capa 2"><path class="cls-1" d="M311.93,39.74h0c1.2.1,2.33.15,2.89-.33h2.47A4.52,4.52,0,0,0,315.1,39l-1.93-.19a23.62,23.62,0,0,0-3.09-.23,3.16,3.16,0,0,0-.44-.16c.4-.13.87-.11,1.19-.44-.62-1.06-2.43,0-3.17-.77l1.79-.16,2,0a5.22,5.22,0,0,0,2.55-.38c1.08-.09,2.21.23,3.31-.2a10.07,10.07,0,0,0-3.32-.16h-1.92c-1.53,0-3.08-.27-4.52.31l-1.89,0h-.23l-4.07-.88c-1.36-.62-2.85-.39-4.32-.33a13.36,13.36,0,0,0-1.61-.2c-.13,0-.27-.07-.3-.22,3.55-.11,7.13.18,10.63-.52a6.82,6.82,0,0,0,2.8-.16,7,7,0,0,0-2.8-.14l-3.43-.06c-1.74,0-3.61.34-4.82-.88v-.41c.94-.11,2.14.35,3.13-.65-1.31.12-2.2.19-3.1.26h-1.37l-3.77,0c-2.34-.05-4.54-1.06-7-.4L284,31.69h0l-2.51-.27,1.27-.43a6.05,6.05,0,0,0,1.9-.22,3.78,3.78,0,0,0,.6,0l1.95-.25c-.2-.48-2.85-.05-2.47-.74.61-.07,1.21-.13,1.83-.18l-.1-.09h.22l-.12.08a5.46,5.46,0,0,0,4.46.16l3.77,0a3.91,3.91,0,0,0,.93.05c.95,0,1.85-.12,3.07-.16-1.15-.41-2,0-2.74-.1l-3-.44h0a.14.14,0,0,1,0-.18l.61-.18c1.33,0,2.7,0,4-.1s.69-.3-.14-.41L298,28a6.36,6.36,0,0,0,2.5-.3,2.06,2.06,0,0,0,.44,0c.58.05,1.53.14,1.61-.05s-.8-.29-1.52-.27a3.23,3.23,0,0,1-.47-.05l.67-.23h2.47l1.27.07a12,12,0,0,0,3.69.12L305.56,27c-1-.08-.45-1-2.49-.47l-.73-.14.77-.26h2.47l-3.24-.61h0a1.39,1.39,0,0,1,.11-.21l1.32-.41a7.53,7.53,0,0,0,2.24-.08l-2.29-.36c-.63-.06-1.26-.14-1.88-.22-1.09-.31-2.61-.22-3.8-.43l.67-.2a11.13,11.13,0,0,0,2.41-.12h0c-1.48-.59-3.77-.43-5.66-.66L293,22.6c1.57-.14,3-.45,3.3-1.84a1.54,1.54,0,0,0-.19-.17h.05l.14.18c.7-.4,2.61,0,2-1.27.6,0,1.19,0,1.77,0,.9,1.4,1.84-.09,2.76,0l.18.08.19-.06c1.28-.2,2.75.31,3.86-.49-.68-.53-1.38-1.06-2.05-1.6-1.23,0-2.6-.64-3.65.31h0l-.19-.08-.19.07c0-.38-.08-.77-.11-1.15l3-.15a3.44,3.44,0,0,0,2.22-.2c-.72-.71-1.48-.3-2.2-.15L300,16c.11.06.12.13,0,.21v.06h0v-.06h-.28A1.59,1.59,0,0,1,300,16c-.62-.23-1.22-.47-1.83-.71.88-.14,1.77-.27,2.64-.42h0l1.07,0c1.7-.19,3.51.32,5.1-.43h0c.42-.51,1.2-.37,1.84-.44,1.37,0,2.85.28,4-.67a7.09,7.09,0,0,0-4,.3l-3.2,0c-.65-.1-1.5.16-1.83-.48a4.58,4.58,0,0,0,.63,0c1.55,0,3.21.28,4.83-.74h-4.83c-.2-.14-.39-.28-.58-.44l2.4-.14a15.65,15.65,0,0,0,4.39-.27,8.14,8.14,0,0,0-5-.1h-3.8l-.92.3L300,11l1.95-.81c.84-.13,1.8.25,2.8-.42a17.58,17.58,0,0,1-4.15-.39l-2.46,0a16,16,0,0,0-4.39.33l-.19.07a.35.35,0,0,0,0-.39c.55-.75,2-.22,2.66-.83l1.09.27c1.54-.08,3.22.57,4.59-.38,3.26-1.06,7.05.41,10.76-1.09l-2.59-.11a56.25,56.25,0,0,1-10.7,0l-1.27,0c-1.73.21-3.6-.4-5.21.43h-1.18c-.52,0-1.2,0-1.3-.45-.12-.56.65-.39,1.07-.39,3.47,0,6.91,0,10.38,0-1.89-.49-3.75-1.15-5.67-.42-1.13-.81-2.55-.31-3.84-.34L286,5.9a.31.31,0,0,0-.38,0h0c-1.49-.5-3.15-.1-4.69-.35a5.37,5.37,0,0,0-3.92-.8h0a2.42,2.42,0,0,1-.48-.13c0-.28,1.14-.49.43-.69s-2.1-.32-2.4.68a1.26,1.26,0,0,1-.58,0,2.18,2.18,0,0,0-1.5-.55c-3.52-.3-7.16.22-10.59-.66h8.32a3,3,0,0,1,.08-.32L269,2.93c.6-.68,2.05,0,2.71-.74-1.43-1-3.2-.1-4.71-.43,0-.14,0-.29.05-.42l3.15-.08h5.65V.94h-5.65l-7.52,0h0l-4,0h-12A55.6,55.6,0,0,0,235.81.55c-1,0-2.35-.56-2.38.76-.89.13-1.76.29-2.65.42-1.92.05-3.74-.64-5.71-.37-.39,0-.77-.05-1.15-.09.39-.5,1.13-.34,1.76-.41s1.37.26,1.42-.31-.8-.46-1.41-.48c-1.15.12-3.34-.69-2.56,1.23l-3.1,0h0c-1.32,0-2.26.61-3.41.89a8.49,8.49,0,0,0-3.57-.56C211.3.46,211.3.46,209.53,1c.54.56,1.86.19,2.3.84l1.15.43c-1.72.85-4-.2-5.68.69l-1.24.13L204.75,3c-.07-.32,1.4-.47.31-.82s-2.66-.69-2.83.79a.47.47,0,0,1,.1.1h-.18l.08-.11-1.95.12a80.89,80.89,0,0,0-12.06.32l-.66.39h0l-.62,0c-1.33-.82-2.89-.36-4.38-.36-2.1-1-3.91-.72-5.31.65a4.54,4.54,0,0,1-3.6,1c-.7-.64-1.69-.3-2.57-.34v.42a.08.08,0,0,0-.06,0c.15-.12.21-.26.06-.4-.2-1.62-1.59-1.41-3.16-.91a3.64,3.64,0,0,0-3.13-.43c-1.56-.61-2.3-.41-2,.87l0,.73-1.23.08c0-.54-.45-.82-1.27-.82-.15-.79.7-1.57,0-2.54-1.74,1.2-3.82.31-5.78.46-.42,0-.85,0-1.25,0-.69.06-1.84-.44-2,.35s1.1.8,2,.82a6,6,0,0,1,.61.08h0v.37c-.7.69-1.79.25-2.67.41-1.26.1-1.13.72-1.12,1.3l-2.45.85h0a7,7,0,0,0-3.34.41c-1-.54-2,.09-2.94,0l-.07,0h0l-.07,0a1.75,1.75,0,0,0-1.37-.46h0a3.47,3.47,0,0,0-3.24-.1c-.82.14-1.77-.07-2.49.39-1.58.49-3.59-.83-5,.49a18.16,18.16,0,0,0-7,.1c-.19,0-.38-.1-.57-.13.3-.76.22-1.34-1.32-1.21.09-.3.76-.65.24-.87a1.58,1.58,0,0,0-1.56.37c-.53.52.24.47.68.54.22.39,1.37.59.56,1.19l.06.08c-3,.09-6-.44-8.9.42-2,.83-2.59-1.41-4.43-.89-1.29-.16-2.75-1-3.63.4-1.55.07-3.13-.62-4.67.07-.86.12-1.72.26-2.56.4h0c-.24-.87.69-1.09,1.61-1.43s1.51-.86-.16-1.15c-1.86-1.85-3.85-2-8-.44,2.78-.06,5.26-1,7.15.49a8.81,8.81,0,0,1-3.15.42H91.66l-3.89,0h0a2.83,2.83,0,0,1-.51,0c.18-.74.57-1.58-1.4-1.27h0a3.11,3.11,0,0,0-1.77.43c-1.3.08-2.68-.28-3.87.34-1.1.14-2.31-.09-3.32.39h0c-.58,0-1.43-.09-1.49.41,0,.28.64.6,1,.9-.65.08-1.46-.16-1.86.41L72,7.7l-3.13,0c-.13.09-.07.2,0,.3h0a1.67,1.67,0,0,0,.08-.3c0-.15,0-.31,0-.46.59-.22,1.46,0,1.86-.5.75-.23,1.84.25,2.52-.59a6.09,6.09,0,0,0-3.73.22c-2.78.14-5.45.85-8.29.76a2.19,2.19,0,0,1,0-.36h0c.36-.22.93-.57-.1-.56a2.12,2.12,0,0,0-1.84,1l.49.81c1.5.88,3-.36,4.55,0,0,.25,0,.51-.09.76A12.75,12.75,0,0,0,56.69,11h0a1.43,1.43,0,0,0-.55,0c-1.3-.14-2.53-.88-3.94-.22a2.07,2.07,0,0,0-.5.15h0L51,11c-1.32.13-2.74-.29-4,.31a18.36,18.36,0,0,0-4.86.17l-4.44-.08c-1,.36-2.41-.86-3.26.31a4.58,4.58,0,0,0-.56.16l-9.58.83h0l-2.52.43c-1.88.45-4.17.14-5.64,1.33a7.76,7.76,0,0,0-3.2.4l-2.53.38c-.53.17-1.35.11-1.34.72a2.27,2.27,0,0,0,1.95-.34c.88-.07,1.87.16,2.55-.42,1-.05,2.1.15,2.53-.72h0a5.45,5.45,0,0,0,2.42.23l.68.41c-1.2.41-2.71.23-3.8.86l-1.89.45-2.29.7c.89.58,1.57,0,2.24.17l1.32.82.12.4-2.31.89a8.41,8.41,0,0,0-2.35-.24h-5l0,.13c1.9.09,3.78.18,5.67.29l1.38,0-.59.22h2.47l.05,0c-2.36,0-4.7.11-7,0l-2.59,0a48.22,48.22,0,0,0,8.39.46c-.58.21-.58,1.08-1.26,1.18-.35.08-.86.19-1.24.29A12.83,12.83,0,0,0,6.61,22c1.08.08,2,.07,2.89.08l-.87.21a8.15,8.15,0,0,0,3.14-.14l1.63.05-.57.22H8a15.34,15.34,0,0,0,4.83.37l.62,0c-.32.32-1.18.19-1.83.24H8.42a13.4,13.4,0,0,0-4-.15,11.58,11.58,0,0,0,4,.33,4.84,4.84,0,0,1,1.84.22,29.6,29.6,0,0,0,5.1.21l1.07,0h0l2.65.21.47-.05h0c-.14.05-.33,0-.47.05l-1.83.35a1.73,1.73,0,0,1,.24.1h-.28v0h0v0c-.07-.05-.06-.08,0-.11l-3.79,0a3.79,3.79,0,0,0-2.21.08,6.67,6.67,0,0,0,2.24.1l3,.07c0,.19-.07.38-.1.58l-.2,0-.18,0h0c-1-.48-2.42-.14-3.64-.16l-2.06.8c1.1.4,2.59.14,3.87.24l.19,0,.18,0c.92,0,1.85.69,2.76,0A12.49,12.49,0,0,1,19,26c-.24.34.23.42.84.47a1.77,1.77,0,0,0-1.37.32,9.42,9.42,0,0,1,1.78.38c-1.46-.53-3-.23-4.28-.39H12.8l-1.19,0A6.31,6.31,0,0,0,9.8,27c.53-.13,1.36,0,1.81-.2a32.92,32.92,0,0,0-5.35-.2A7.53,7.53,0,0,0,9.7,27h3.1c.83,0,1.65,0,2.47,0a23.4,23.4,0,0,0,5,.19,3.61,3.61,0,0,0,1.27-.06,1.28,1.28,0,0,0,.47,0,11.31,11.31,0,0,0,3.52.5l1.86.05,1.29.19a3.73,3.73,0,0,0,1.75.35c-.16.08-.33.14-.38.32L32,29a1.61,1.61,0,0,0,.58.1c.44.5,1.26.29,1.91.43l1.31.87a.47.47,0,0,0,0,.17h-7a1.1,1.1,0,0,0,0,.18h7.08v0a2,2,0,0,0-1.37.39c-.2,0-.39.07-.6.09-.53.22-1.62.17-1.47.72,0,.15.22.13.34.16l-.9.12c-2.42-.33-4.64.17-7,.2H19.77l-3.11-.12a8,8,0,0,0,3.14.32c0,.06,0,.14,0,.2-1.23.61-3.1.43-4.82.44l-3.43,0h0a13.23,13.23,0,0,0-2.81.07,13.93,13.93,0,0,0,2.81.08c3.49.35,7.08.21,10.63.26-.12.23-.78.16-1.16.23a1.16,1.16,0,0,0,.11.16h0c0-.06.07-.12-.09-.16a24.58,24.58,0,0,0-5.09.16c-1.35.13-2.69.27-4,.42h-.24l-1.9,0h0a22.44,22.44,0,0,0-4.51-.15H3.32A19.45,19.45,0,0,0,0,34.45a20.33,20.33,0,0,0,3.3.1,9.52,9.52,0,0,0,2.55.19h2l1.79.08c-.73.41-2.56-.15-3.15.39,1.19.65,3.25.3,4.88.46-1.41.43-3.21.07-5,.26,3.13.09,6,.42,8.92.35h0l-.67.57A25.91,25.91,0,0,0,11,36.69a38.84,38.84,0,0,0-4.89.09,14.11,14.11,0,0,0,4.24.29c1.22,0,2.43,0,3.65,0h0a8.49,8.49,0,0,1-2.43.22H8.21c1.45.27,2.22.56,3.35.2.66.06,1.32.11,2,.18,1.2,0,2.39,0,3.59,0,1.64.18,3.35.21,5.07.26l-.1,0c-1.16.18-2.64.47-2.76,1.59h-.07s0,0,0,0c-2.34-.09-4.65-.1-6.41,1.2-.92,0-1.55.25-1.72.89C10.29,43,8,43.39,7.21,44.67c-1.15-.22-2,.43-3.09.45l-1.93.39A2.8,2.8,0,0,0,0,46.38H2.48c.56,1,1.69.88,2.88.67h0c0,.5-.14,1,1,1l1.47.78c-.62.88-2.44.5-3.12,1.31l-3.27.63C3,51,3.9,51.2,4.66,50.65c.66.08.6.43.59.75a1.76,1.76,0,0,0-.45.07l-3.19.68c1.53.1,2.51.34,3.11-.39L7.77,52h0l-.51.74-3.72.45-2.71.64c1.63.15,2.54.27,3.25-.25l4.4-.07.63,0c.05.36-.2.61-.64.8-1.21,0-2.44-.11-3.46.73l2.7.19c-.4.45-1.12.31-1.7.41s-1.27.16-1.27.73a2.51,2.51,0,0,0,1.94-.28L9.1,56c.87.21,1.25,1,2.34.89h0a5.11,5.11,0,0,0,4,1.24l.18.09h.22a15.84,15.84,0,0,0,4.71.73l1.88.42c.47.56,1.27.46,2,.43a10.84,10.84,0,0,0,3.7.44,4.42,4.42,0,0,0,2,.37c1.63.15,3.24.3,4.87.43,2.18-.54,4.3,1.1,6.5.09l1.22,0c.5.47,1.32.21,2,.37,1.33.86,3,.27,4.44.42l4.48-.46c1.18-.41,2.87.24,3.76-.78h0c1-.33,1.81-1,3.15-.76,1.81.68,3.79.16,5.68.35-.87.78-2.61.17-3.83,1.19,2.07-.35,4.48,1.15,5.25-1.17a2.35,2.35,0,0,1,.54.06h0c.5.44,1.24.29,1.9.3.62-.48,2-.7,1.3-1.65l-.62-.84c1.07-.5.68-.79-.36-.82s-1.21-.34-.87-.9c.4-.11.78-.23,1.16-.35.51.14,1.16.73,1.53.16,1-1.48,1.68-.16,2.49,0-.37,1.72,2.38.64,3,1.47.51.15,1,.62,1.56.3s.42-.82-.23-1.17h0c0-.14-.06-.28-.08-.42a.46.46,0,0,0,.08-.37,2.74,2.74,0,0,1,1.75-.41,10,10,0,0,0,4.41.82c-.22.35-1.55.34-.72,1.05.55.48.85,1.21,2.07.59l.24,0h.25c.11.6.59.88,1.5.78h3.09q1,.26,1.92.48c0-.14,0-.3,0-.44h0c-.11.15-.22.3,0,.45a12.14,12.14,0,0,0,5.72.24c1.52,1,3.39.37,5.1.49a1.54,1.54,0,0,0,0-.3h.13c-.06.1-.17.19-.09.3l4.48,0,4.82.13c5.58.6,11.17-.06,16.75-.08l5.11-.05,7,.06a11.19,11.19,0,0,0,3.83,0c0-.15,0-.3-.06-.45h.09c-.1.15-.21.3,0,.45l10.14-.09,3.17.06,0-.36h.08c-.05.12-.23.21-.11.36l3.82,0v-.37h.09c-.07.12-.23.23-.09.37a16,16,0,0,0,4.43,0c.11-.12-.06-.23-.12-.34h.11c0,.11,0,.24,0,.34h3.15a35,35,0,0,0,4.35-.13,8.46,8.46,0,0,0,1.46-.22l1.06,0c1.19.58,2.59.24,3.89.33h0c2,.6,4.05,1.32,5.8-.31l1.23-.11a10.91,10.91,0,0,0,4-.3l2.23.28h0a20.43,20.43,0,0,0,2.57.61c.93.12,1.92.07,1.4-.9l1.18-.13,1.31.14c.12.83,1.05.76,1.94.75,1.5-.06,3.1.25,4.5-.35h0l3.05-.11a.76.76,0,0,0-.05-.3h.11c-.05.1-.14.2-.06.3,1.54,0,3.16.39,4.58-.36h0l1.91-.4c1.09.75,2.43.32,3.69.31h0l2.6-.41v-.26h.08c0,.08-.16.16-.08.26l3.74,0,3.93-.43c0-.12-.07-.23-.1-.36h-2.52l-.61-.36,2.44-.14-.57-.36s.09,0,.11,0c.13.15.2.31.46.39a9.71,9.71,0,0,0,4-.28c.56,0,1.14-.06,1.71-.08a2.63,2.63,0,0,0,2-.39l1.3-.07,2.45-.4h0c.46.15.92.27,1.37.42a2.71,2.71,0,0,0,1.89-.35c.34-.17.35-.36,0-.56a1.75,1.75,0,0,0-1.3-.29c.6-1.14,2.5,0,3.25-.81h0c1-.12,2.21.16,2.51-.83.85.32,1.65-.08,2.49-.08h0c1.85,1.21,3.2-.79,5-.33a7.1,7.1,0,0,0,4.11,0H273.8c2.14.56,4.34.28,6.53.21,1.36,0,2.79.11,3.72-.79,0,0,0,0,0,0h0c.85-.14,1.71-.29,2.58-.41.22,0,.42,0,.63,0a7.48,7.48,0,0,0,2.76-.27c.29-1-2.51.09-1.38-1.33l.49-.08h2.28l-1.52-.79h3.68a3.65,3.65,0,0,0-3.73-.42,3.79,3.79,0,0,1-2.52-.84.88.88,0,0,0-.58.06.61.61,0,0,1,0-.13,2.37,2.37,0,0,1,.61.07c1.3-.19,2.72.11,3.95-.42a.69.69,0,0,1-.47,0s0,0,.05,0h0l.42,0,1.75,0c2.06.47,3.37-.68,5.3-1.08l-5.93-.57a12.16,12.16,0,0,0-1.08-.59c.48-.06,1-.05,1.47-.09h0a4.21,4.21,0,0,0,2-.22l1.89-.21a29.7,29.7,0,0,0,4.71-.36h.22l.17,0a9,9,0,0,0,4.05-.62,11.21,11.21,0,0,0,2.34-.44l2.43.06a4.8,4.8,0,0,0,1.93.14c0-.29-.72-.29-1.27-.37a5.47,5.47,0,0,1-1.7-.2l2.7-.09a8.87,8.87,0,0,0-3.46-.37c-.44-.1-.69-.23-.65-.41l.64,0,4.4,0a9.28,9.28,0,0,0,3.24.12l-2.7-.32L310,42.58l-.52-.37,3.05-.12c.61.37,1.57.25,3.1.2L312.49,42l-.46,0c0-.16-.06-.33.6-.37a8.24,8.24,0,0,0,3.21.08l-3.27-.32c-.67-.4-2.51-.21-3.12-.65l1.47-.39C312.06,40.26,312,40,311.93,39.74Z"/></g></g></svg>