<svg xmlns="http://www.w3.org/2000/svg" viewBox="0 0 317.25 69"><defs><style>.cls-1{fill:#fbffff;fill-rule:evenodd;}</style></defs><title>boton-comboshamburguesas</title><g id="Capa_2" data-name="Capa 2"><g id="Capa_2-2" data-name="Capa 2"><path class="cls-1" d="M317.25,31.16c-.11-.18-.31-.21-.48-.32.23-.11.41-.24.08-.49s-.5,0-.79.1l-.72-.14a2,2,0,0,0-1.45-.45L311.44,29c-.11-.12-.34-.13-.5-.22l.35-.1a9.71,9.71,0,0,0,6,0c-.35-.39-1.09-.32-1.61-.52A1.3,1.3,0,0,0,315,28c-.49-.1-.76-.46-1.37-.44s-1.41,0-2.13,0a.51.51,0,0,0,.18-.06,2.54,2.54,0,0,0-.16-.28c.07-.26.36-.32.68-.36a14.56,14.56,0,0,0,4.48-.39,10.77,10.77,0,0,0-4.3-.28h-1c-.51-.18-1.14-.31-1.13-.79h0v0h0c.65-.09,1.37.12,2,0h2.41c.64,0,1.23-.12,1.16-.63s-.61-.43-1.13-.41a13,13,0,0,1-2.26-.27,9.74,9.74,0,0,1-1-.42c-.08,0-.14-.1-.22-.15,1.17-.21,2.59.54,3.58-.36a3.11,3.11,0,0,1,.3-.44l.22-.15-.09-.08a.61.61,0,0,1,.07-.1c0-.47-.43-.66-1.1-.72h0c0-.23,0-.46,0-.69h0c1.52-.1.64-.47.43-.94a1.26,1.26,0,0,0-.95-.76c0-.55-.61-1.1-1.12-1.65,2.85-1.39,0-2-1.14-2.82,1.16-.83,2.2.18,3.81-.09-2.09-1.2-2.85-2.88-5.61-3.5h0l-1.39-.66c-1.3-.47-2.51-1.18-4.05-.2-.89.58-1.41-1-2.46-.23-1.76.19-2.86-1.27-4.77-.74-.12,0-.09,0-.18,0,.11-.36,0-.7-.75-1,0-.28,0-.57.05-.86.88-.83.19-1.27-1-1.55-1.11-.61-2.46-.17-3.69-.31,0-.21,0-.42,0-.63a6.77,6.77,0,0,0,3-.42c-2.7-1-5.31-.66-7.81-.71h0l-1.35,0-2.23-.08-1.21.34,1.1.14c-.19.21-.39.41-.57.63-.43,0-.83.08-1.24.12-.83,0-1.8-.41-2.46.26h0l0,0h0c-1.12.07-2.09.56-3.33.42a1.66,1.66,0,0,0-2.07,1.15l-.52-.07c-.73-.55-.41-1.5-1.8-1.77a19.61,19.61,0,0,1-4.22-.37h-3.29c.65.52,1.44.27,2,.43l1.87.68a1.91,1.91,0,0,1-.47,0l-.84,0c-.93.27-2.31-.71-2.93.41.76.82-.09,1-1.15,1.05-.67-1.08-2.05-.05-3-.38L258.28,6c-2,.15-1.9-.65-1.71-1.49.24,0,.63,0,.77-.16.33-.28,0-.38-.43-.38-.71,0-1.34-.47-2.15-.18s-1.21,1.24-2.64.77h0a6.83,6.83,0,0,0-3.42-.06.73.73,0,0,0-.44,0c-.69-.53-1.65-.33-2.53-.36,0-.09-.08-.18-.12-.28,0-.34,1.64-.63.34-.92-1.61-.37-3.5-1.41-5.07.12l-.61.43c-1.43.06-.6-1.57-2.39-1.24,0-.56-.09-1.06-1.26-1.08-.16-.44,1-1.4-1.11-1.09h0c-1.43.1-2.63.36-2.46,1.48l-1.19.36C230.71,1.44,230,.4,228.22.82h0c-1.25,0-2.54-.22-3.57.44h0l-1.74.25c-2-1.17-2-1.17-3.74-.34a2.32,2.32,0,0,1-.57.06h-2.37a2.83,2.83,0,0,0-2,.23h0c-1.51,0-3,0-4.53,0h0c0-.31-1.36-.11-.71-.69.44-.05,1.16-.05.9-.43-.38-.55-1-.29-1.55,0L207.2.79l-4.3,1.08L201.8,2h-1.23c-1.45,0-2.9,0-4.35-.05-1.28,0-1.72.36-1.73,1.08h-1.1l-.61-.61c-.82-.07-1.76-.6-2.28.27-.25.59-1.65.2-1.85.83a1.3,1.3,0,0,0-1.35,1c-.78.46-1.52-.07-2.29,0-1.85-1.3-4.46-.48-6.64-.89-.17,0-1,.07-.68.39s.75.32,1.15.47a3.29,3.29,0,0,1-2,.08c-.82-.17-1.62-.1-1.57.65a1.42,1.42,0,0,0,1.24.45h0a1.94,1.94,0,0,0-1.24-.45h-1.06c-3-1.06-4.17-1-4.39.39l-1.13.11a32.2,32.2,0,0,0-6.8,0,2.5,2.5,0,0,0-1.76-1.1,2.62,2.62,0,0,0-1.53.16,2.64,2.64,0,0,0-1.54-.16,2.48,2.48,0,0,0-1.75,1.1,32.2,32.2,0,0,0-6.8,0l-1.14-.11c-.22-1.34-1.39-1.45-4.4-.39h-1a1.89,1.89,0,0,0-1.25.45h0A1.45,1.45,0,0,0,142,5.18c0-.75-.74-.82-1.59-.65a3.29,3.29,0,0,1-2-.08c.42-.15,1-.24,1.18-.47s-.52-.42-.69-.39c-2.18.41-4.78-.41-6.64.89-.77-.05-1.52.48-2.3,0a1.29,1.29,0,0,0-1.34-1c-.21-.63-1.6-.24-1.86-.83-.52-.87-1.47-.34-2.27-.27-.21.21-.41.41-.63.61h-1.08c0-.72-.45-1.12-1.75-1.08s-2.9,0-4.34.05h-1.23l-1.1-.09L110,.79,108.89.37c-.53-.29-1.18-.55-1.55,0-.26.38.45.38.89.43.66.58-.67.38-.71.69-1.52,0-3,0-4.54,0h0a2.82,2.82,0,0,0-2-.23H98.65a2.32,2.32,0,0,1-.57-.06c-1.73-.83-1.73-.83-3.73.34l-1.74-.25h0C91.58.6,90.28.81,89,.82h0c-1.82-.42-2.5.62-3.63,1.08l-1.2-.36c.16-1.12-1-1.38-2.46-1.48h0c-2.11-.31-.93.65-1.11,1.09-1.16,0-1.28.52-1.25,1.08-1.79-.33-1,1.3-2.4,1.24L76.37,3c-1.57-1.53-3.46-.49-5.07-.12-1.29.29.38.58.35.92-.05.1-.1.19-.14.28-.88,0-1.83-.17-2.53.36h0a.64.64,0,0,0-.41,0,6.91,6.91,0,0,0-3.44.06h0c-1.43.47-1.82-.42-2.65-.77S61.07,4,60.34,4c-.45,0-.76.1-.42.38a2,2,0,0,0,.78.16C60.87,5.36,61,6.16,59,6l-.66.72c-.93.33-2.32-.7-3,.38-1.05-.06-1.89-.23-1.14-1.05-.62-1.12-2-.14-2.94-.41l-.82,0a2,2,0,0,1-.48,0L51.8,5c.6-.16,1.38.09,2-.43H50.55a19.69,19.69,0,0,1-4.21.37c-1.42.27-1.09,1.22-1.81,1.77L44,6.73h0a1.66,1.66,0,0,0-2.07-1.15c-1.24.14-2.2-.35-3.33-.42h0v0h0C37.92,4.54,37,5,36.11,5L34.9,4.83l-.58-.63,1.1-.14-1.21-.34L32,3.8l-1.36,0c-2.5.05-5.1-.31-7.8.71a6.72,6.72,0,0,0,3,.42h0c0,.21,0,.42.05.63-1.22.14-2.56-.3-3.68.31-1.24.28-1.92.72-1,1.55,0,.29,0,.58.06.86h0c-.79.33-.85.67-.75,1a1.09,1.09,0,0,1-.18,0c-1.91-.53-3,.93-4.78.74-1-.76-1.56.81-2.45.23-1.53-1-2.76-.27-4,.2l-1.4.66h0c-2.75.62-3.51,2.3-5.61,3.5,1.63.27,2.65-.74,3.81.09-1.15.85-4,1.43-1.15,2.82-.51.55-1.07,1.1-1.11,1.65a1.24,1.24,0,0,0-.94.76c-.21.47-1.09.84.42.94l0,.69c-.67.06-1.12.25-1.09.72a.53.53,0,0,1,.06.1l-.1.08.25.15.29.44c1,.9,2.4.15,3.57.36-.09.05-.12.11-.21.15-.3.16-.66.28-1,.42a13.39,13.39,0,0,1-2.28.27c-.52,0-1,0-1.11.41s.53.63,1.15.63H5c.63.12,1.36-.09,2,0H7s0,0,0,0H7c0,.48-.61.61-1.14.79h-1a10.71,10.71,0,0,0-4.29.28,14.48,14.48,0,0,0,4.47.39c.32,0,.61.1.67.36a.79.79,0,0,0-.13.28s.08.05.17.06c-.71,0-1.42,0-2.14,0s-.86.34-1.36.44a1.27,1.27,0,0,0-.67.21c-.52.2-1.26.13-1.62.52a9.74,9.74,0,0,0,6,0l.35.1c-.16.09-.4.1-.51.22l-2.44.83a2,2,0,0,0-1.46.45l-.71.14c-.29-.1-.6-.27-.8-.1s-.15.38.09.49C.33,31,.11,31,0,31.16c.32,0,.48-.12.77-.14s.39.11.42.23c-.21.12-1-.06-.5.41a8.21,8.21,0,0,0,3,.38c-.65.18-1.28.38-2.06.61a7.2,7.2,0,0,0,3.71-.55s.05,0,.08,0a11.75,11.75,0,0,1,1.68,0h0c-1.2.72-3,0-4.2.63l-1,.11a3.07,3.07,0,0,0,2.05,0,4.18,4.18,0,0,1-2.05,0c-.43,1.23-.43,1.23,2.59,1.54-.07.87-1.63.48-2.13,1-.63.89.47.75,1.23.78,2.35.12,4.7.22,7,.32.75,0,1.61-.14,2.08.42,0,.51,0,1,0,1.51-.31.3-.26.49-.16.64a2.23,2.23,0,0,0-.86,1.17c-.82.65-.08.74.76.79.34.64-1.82,2.15,1.25,1.76.06,0,0,.07.06.1l.18.12c0,.95-2.56,1.27-1.55,2.46-.39.2-1.19.46-.24.67,1.48.36,1.46.67.44,1.31-.21.14.16.64.27,1-.71.57-.37,1.23-.41,1.86L9.61,52.16a.54.54,0,0,0-.22.3,7.21,7.21,0,0,0-2.91.82c-.4.15-1.29.16-1,.68s.89.45,1.51.44c-1,.6-2.83,1-1.74,2.2-.12.31-1,.82.43.73A15.27,15.27,0,0,0,7.57,57c.75.37-.16.82.14,1.22L5.06,59.55c1.72-.16,2.32,1.33,3.79.78.58.78-2.08,1.36-.36,2.22h0l-.85.38A10,10,0,0,0,4,63.68H8.22l.07,0c-.13.52.29.75,1.1.77,0,.12.08.25.12.36L7.1,66a2.75,2.75,0,0,0-2.47,0,6.5,6.5,0,0,0-2.85.36H4.66c.59.13.06.86,1.17.76C6.65,67,7,66.68,7,66.23H7a5.55,5.55,0,0,0,2.39.41c.18.14-.31.75.64.36a4.12,4.12,0,0,1,.52.06c0,.22,0,.42,0,.64l-1.07.15-3.06.52c1.44.12,2.35.35,3-.27H13a1.93,1.93,0,0,0-1.22-.37h.06c.3.23.86.17,1.16.38,1.46.06,2.21,1.18,4.08.83,2.36-.46,4.9-.53,7-1.45a8.23,8.23,0,0,0,3-.4,10.79,10.79,0,0,0,4.18-.39l1.71-.16c1.83,0,3.73.14,5.4-.54,1.17-.14,2.39.19,3.53-.16l6-.38a10.72,10.72,0,0,0,1.39-.13,10.61,10.61,0,0,0,1.24-.12,4,4,0,0,0,2.25-.26l1-.11c2.76.4,5.51.78,8.08-.37l2.68,0a67.54,67.54,0,0,0,8.82-.75L75,63.64c1.09-.15,1.27.81,2.3.73.71-.5,2.26,1.69,2.51-.3a36.62,36.62,0,0,1,14.34,0c.29.33-.78,1,.29,1,.87,0,.73-.57.52-1l1.6-.08,3.06.08c.81-.14,1.84.17,2.43-.44a8.3,8.3,0,0,0,3.74-.68c1.21,1,1.54.39,1.78-.38l1.07.26.6.1c.09.47.26.89,1.21.41,1.46.12.66-1.1,1.82-1.17l1.2-.07c.38,0,.77,0,1.17,0,.87.24-.57.78.42,1.06.74-.46,1.23-1.24,2.64-1.06l.29,0,.28,0,1.27.4c.25.88-1.76.08-1.67.89.64.43,1.45.18,2.2.19a4.6,4.6,0,0,0,3.63-1c1-.41,1.92-.49,2.5.33.12,1.45,2,.41,2.87.8-.12.28-.64.88.44.54a7.26,7.26,0,0,1,2.61-.64,4.2,4.2,0,0,0,2.42-.65c4.11-.11,8.21-.1,12.17-1.1.29-.07.62,0,.93-.07h.32c1.74.21,3.47.46,5.24.58a4.27,4.27,0,0,0,1,0l.76.08a.88.88,0,0,0,.37-.48h0c-.19.14-.36.28-.37.48l1.76.14c0,.36-.3,1.12.88.35a2,2,0,0,1,2.08,0c1.18.77.82,0,.88-.35l1.76-.14.75-.08a4.42,4.42,0,0,0,1,0c1.75-.12,3.5-.37,5.24-.58h.32c.3,0,.63,0,.92.07,4,1,8.05,1,12.18,1.1a4.21,4.21,0,0,0,2.41.65,7.21,7.21,0,0,1,2.61.64c1.08.34.57-.26.44-.54.87-.39,2.76.65,2.86-.8.59-.82,1.5-.74,2.5-.33a4.66,4.66,0,0,0,3.65,1c.73,0,1.56.24,2.2-.19.09-.81-1.92,0-1.68-.89l1.28-.4.29,0,.27,0c1.4-.18,1.9.6,2.63,1.06,1-.28-.43-.82.44-1.06.4,0,.78,0,1.17,0l1.19.07c1.16.07.37,1.29,1.82,1.17.94.48,1.11.06,1.22-.41l.6-.1,1.06-.26c.24.77.58,1.38,1.79.38a8.27,8.27,0,0,0,3.74.68c.58.61,1.61.3,2.42.44l3.07-.08,1.6.08c-.23.42-.36,1,.52,1,1.06,0,0-.68.28-1a36.62,36.62,0,0,1,14.34,0c.25,2,1.8-.2,2.52.3,1,.08,1.21-.88,2.29-.73l1.6.11a67.69,67.69,0,0,0,8.83.75l2.67,0c2.58,1.15,5.34.77,8.09.37l1,.11a4.07,4.07,0,0,0,2.26.26,1196.89,1196.89,0,0,0,2.62.25l6,.38c1.15.35,2.37,0,3.54.16,1.66.68,3.57.5,5.4.54l1.72.16a10.67,10.67,0,0,0,4.16.39,8.26,8.26,0,0,0,3,.4c2.11.92,4.65,1,7,1.45,1.87.35,2.62-.77,4.07-.83h3.56c.62.62,1.53.39,3,.27l-3-.52-1.07-.15v-.64a4.35,4.35,0,0,1,.52-.06c1,.39.48-.22.64-.36a5.43,5.43,0,0,0,2.38-.41c.08.45.4.72,1.22.79,1.12.1.6-.63,1.17-.76h2.88a6.46,6.46,0,0,0-2.85-.36,2.71,2.71,0,0,0-2.45,0l-2.43-1.16c0-.11.08-.24.12-.36.82,0,1.23-.25,1.1-.77l.07,0h4.22a10.14,10.14,0,0,0-3.65-.75c-.28-.12-.55-.26-.84-.38h0c1.71-.86-.95-1.44-.35-2.22,1.47.55,2.06-.94,3.79-.78l-2.66-1.38c.3-.4-.62-.85.15-1.22a15.11,15.11,0,0,0,1.87.38c1.45.09.56-.42.42-.73,1.09-1.24-.7-1.6-1.72-2.2.61,0,1.27,0,1.5-.44s-.59-.53-1-.68a7.12,7.12,0,0,0-2.91-.82.5.5,0,0,0-.22-.3l-2.8-1.93c0-.63.29-1.29-.41-1.86h0c.09-.33.48-.83.27-1-1-.64-1-.95.43-1.31,1-.21.15-.47-.24-.67,1-1.19-1.52-1.51-1.54-2.46l.18-.12c.09,0,0-.06.05-.1,3.08.39.91-1.12,1.26-1.76.82,0,1.57-.14.76-.79a2.17,2.17,0,0,0-.88-1.17c.12-.15.17-.34-.15-.64,0-.5,0-1,0-1.51.45-.56,1.32-.38,2.07-.42,2.35-.1,4.71-.2,7.06-.32.75,0,1.85.11,1.22-.78-.5-.49-2.05-.1-2.12-1,3-.31,3-.31,2.57-1.54a4.1,4.1,0,0,1-2,0,3,3,0,0,0,2,0l-1-.11c-1.21-.67-3,.09-4.19-.63a11.45,11.45,0,0,1,1.66,0s.05,0,.09,0a7.2,7.2,0,0,0,3.72.55c-.79-.23-1.41-.43-2.07-.61a8.23,8.23,0,0,0,3-.38c.56-.47-.28-.29-.5-.41,0-.12.25-.16.44-.23S316.94,31.15,317.25,31.16Z"/></g></g></svg>