<svg xmlns="http://www.w3.org/2000/svg" viewBox="0 0 317.25 60"><defs><style>.cls-1{fill:#fbffff;fill-rule:evenodd;}</style></defs><title>boton-combos</title><g id="Capa_2" data-name="Capa 2"><g id="Capa_2-2" data-name="Capa 2"><path class="cls-1" d="M313.4,28.68h3.85c-2.57-1-5-.22-7.25-.32-1.24-.46-2.28-1.14-4.12-.92h0a12,12,0,0,0-3.16-.07c-.25-.26-.64-.55-.85-.81A4,4,0,0,0,301,26l-2.3-.87,1.17-.59a6.44,6.44,0,0,0,2.51-.59h0c.81-.3,1.63-.61,1.57-1.2v-.27c1.24-.06,2.58-.06,2.85-.88-.15-.3-.3-.59-.44-.89h0c.94.07,1.84.27,2.43-.4a16,16,0,0,1,2.19-1.7c.78-.3,1.57-.59,2.36-.87-.06-.84.59-1.52,1.78-2.08.69-.06,1.59.17,2-.23s-.4-.31-.81-.36l-2.95-.29v-.89l.6-.59V13c.67-.12,1.25.39,2,.08a2.63,2.63,0,0,0-1.4-.67,3.56,3.56,0,0,0-1.76-.89c.37-.64-1.71-.81-1.18-1.48.85.1,1.11.67,2.27.66a2.5,2.5,0,0,0-1.68-.95,2,2,0,0,0-1.55-.65c.13.22.24.44.36.65H308.7l-1.77-.6c0-.11-.19-.16-.26-.26.5-.1,1-.2,1.53-.28,1.36-.15-.06-.66.49-.91h0a4.79,4.79,0,0,0,2.39-.83c1.1-.17,2.43.16,3.73-.48-1.55.05-2.67.09-3.8.11-.12-.18-.22-.37-.33-.56.55-.37,1.82-.32,2-.9l-.41,0c-1.52-.54-3.22-.19-4.82-.24-1.76,0-3.55,0-5.31,0l-3.56-.37a.89.89,0,0,0-.49,0h0c-.59-.38-2.87-.08-1.78-1.12-2.55-1.14-5.7-1.35-8.94-1.45l-2.17-.08c-2.83-.15-5.45-1-8.45-.54-1.37-.08-2.61-.65-4.11-.28-.85-.05-1.75-.27-2.38.24a2.09,2.09,0,0,0-.56,0,7.46,7.46,0,0,0-3.52-.3c-.37,0-.74,0-1.1,0-2.51-.48-5.23-.17-7.77-.51a16.47,16.47,0,0,0-3.51,0h-4.14a5.52,5.52,0,0,0-.58,0c-1.32.05-2.65.15-3.95.14-3.94,0-7.88-.14-11.81-.14h-.64c-1.22,0-2.43,0-3.65,0-.13.12,0,.19.11.27h-.11V.31c-.26,0-.53,0-.79,0a7.65,7.65,0,0,0-2.67-.3H210.84c-.28.08-.28.18,0,.26l14.75,0h0c-6.91-.08-13.82-.13-20.74,0-.09.1.07.16.15.24h-.17v.3h-.06c.11-.08.23-.18.06-.3,0-.08,0-.15,0-.24h-1.78c-2.65.07-5.35-.23-8,.21h0A.59.59,0,0,0,195,.5a3.34,3.34,0,0,0-.43.05,12.75,12.75,0,0,0-3.49,0c-6.26.07-12.52-.14-18.74.3h-5.67a8.69,8.69,0,0,0-1.14,0l1.82-.4a3.78,3.78,0,0,0-2.47.12l-3.51,0a2.94,2.94,0,0,0-1.83.33h0c-2.72.08-5.46-.26-8.14.19h-.28l-17.45.1h-1.25l-16,0c-3.3.09-6.6.16-9.92.26H99.94c-2.17,0-4.34,0-6.51,0H90.52c-1.17,0-2.35,0-3.53,0H85.75l-5.13-.08h0a36.91,36.91,0,0,0-6.05-.21L70,1.13a16.92,16.92,0,0,0-4.34-.2c-.55,0-1.1-.05-1.67-.07A64.85,64.85,0,0,0,55.75.55C54.11.08,52.27.41,50.55.24h0c-.91-.3-1.71-.44-1.95.31-1.05.71-.88,1.7-2.15,2.39s-1.23,1.41-.39,2.19c0,.08.09.14.23.2L48,6.79A7.44,7.44,0,0,0,43.72,8a1.63,1.63,0,0,0-1.09.59h0a1.51,1.51,0,0,0-1.06.33c-1,.18-2.43-.31-2.94.51a.43.43,0,0,1-.16,0l-2.73,0A8.15,8.15,0,0,0,32.67,9a7.39,7.39,0,0,0,3,.75l1,.34c-.15.77-.32,1.55-.47,2.34.09.07.28.14.38.22l-.13,0h0l-.75,0-1.73,0h0L31.63,13h0c-2.49.33-5.16.46-7.1,1.46-1.75.18-2.71,1-4.46,1.3,1.16.32,1.84-.18,2.69-.13l.66.32h0l-1.27.84a8.14,8.14,0,0,0-3.59,1.48c-.66.22-1.15.48-1,.93.36,1.11-2.46,1.51-2.6,2.69l1.92-.62a2.89,2.89,0,0,0,0,.29l-1.22.88c.61.56.25,1-.6,1.42-.58.24-1.15.45-1.72.68a2,2,0,0,0-1.22.26c-2.6.78-2.57.91.4,1.85h0c0,.14.08.27.12.43a26.77,26.77,0,0,0-6.26,1c-1.12.26-.62.47.3.55-.4.78-1.9.8-3,1.11l-2.1.9,2.82.1c.44.35.29.53-.57.51H0c2.57,1.05,5,.23,7.24.33h0c1.25.48,2.29,1.15,4.13.93a11.55,11.55,0,0,0,3.16.06c.25.27.64.54.85.81a4.78,4.78,0,0,0,.83.56l2.31.88c-.4.18-.79.37-1.18.58a6.32,6.32,0,0,0-2.52.58h0c-.83.32-1.65.62-1.58,1.23l0,.11v.13c-1.22.08-2.55.08-2.85.9l.45.88h0C9.9,39.23,9,39,8.4,39.67a14.35,14.35,0,0,1-2.18,1.71h0l-2.37.89h0c.06.82-.6,1.51-1.79,2.07-.68,0-1.58-.18-2,.22s.41.3.81.36l2.94.29v.89l-.59.59V47c-.67.12-1.25-.38-2-.07a2.34,2.34,0,0,0,1.39.67,3.52,3.52,0,0,0,1.75.89c-.36.66,1.72.8,1.19,1.48-.84-.1-1.1-.67-2.27-.67a2.59,2.59,0,0,0,1.68,1,1.94,1.94,0,0,0,1.54.63c-.11-.21-.23-.42-.35-.63H8.55l1.76.58h0c0,.12.2.19.28.28-.52.08-1,.19-1.54.28-1.37.13,0,.64-.49.91h0a5,5,0,0,0-2.4.82c-1.08.16-2.41-.17-3.72.49l3.81-.13c.1.2.22.38.32.57.26.11.53.2.79.32h0c0-.29-.16-.45-.79-.32-.54.36-1.81.34-2,.9.13,0,.27,0,.4,0,1.53.52,3.21.19,4.82.23h5.31c1.18.11,2.37.22,3.55.36a1,1,0,0,0,.51,0h0c.57.38,2.86.08,1.77,1.12,2.56,1.13,5.7,1.36,8.94,1.46.73,0,1.45,0,2.18.06h0c2.82.15,5.45,1,8.44.56,1.37.07,2.62.62,4.11.29.84,0,1.75.24,2.38-.25a3.33,3.33,0,0,0,.56,0,7.36,7.36,0,0,0,3.52.3l1.11,0c2.5.47,5.21.18,7.76.52a15.17,15.17,0,0,0,3.5,0l4.16,0h.57c1.31-.05,2.64-.14,4-.14,3.94,0,7.87.14,11.81.14.21,0,.42,0,.63,0,1.22,0,2.43,0,3.65,0,.12-.1,0-.18-.12-.28h.12v.28c.26,0,.52,0,.78,0a7.48,7.48,0,0,0,2.68.31H106.4c.29-.09.29-.17,0-.26q-7.37,0-14.72,0h-.06c6.92.1,13.83.13,20.74,0,.09-.1-.08-.16-.14-.25h.15v-.29h.07c-.11.09-.22.19-.07.29,0,.09,0,.16,0,.25h1.79c2.65-.08,5.34.21,7.95-.22h0c.07,0,.13.06.19.06s.3-.06.43-.06a12.82,12.82,0,0,0,3.5,0c6.25-.07,12.52.16,18.74-.28l5.67,0a11,11,0,0,0,1.14,0c-.6.11-1.21.24-1.82.37a3.69,3.69,0,0,0,2.46-.11c1.18,0,2.35,0,3.52,0,.2-.08.19-.15,0-.26h0v.28a3,3,0,0,0,1.84-.34h0c2.8-.09,5.65.32,8.41-.2l17.45-.1h1.25l16,0c3.3-.1,6.6-.18,9.92-.26H212c1.77,0,3.53,0,5.28,0h13c.41,0,.82,0,1.22,0l5.13.08a.27.27,0,0,1,.09,0,38.37,38.37,0,0,0,6,.2l4.52.1a18,18,0,0,0,4.35.21l1.66,0a65.06,65.06,0,0,0,8.27.32c1.65.49,3.49.14,5.22.3.89.32,1.7.47,1.93-.3,1.05-.71.88-1.69,2.15-2.39s1.23-1.4.4-2.17c0-.1-.08-.16-.23-.21-.59-.48-1.15-1-1.73-1.47A7.31,7.31,0,0,0,273.52,52a1.5,1.5,0,0,0,1.08-.57h0a1.36,1.36,0,0,0,1-.33c1-.19,2.43.3,2.95-.52h.16c.91,0,1.82,0,2.72,0a8.7,8.7,0,0,0,3.08.38,6.78,6.78,0,0,0-3-.74l-1-.35c.16-.78.33-1.56.47-2.33-.09-.1-.28-.15-.39-.25.06,0,.1,0,.14,0h0l.74,0,1.74,0c.79-.08,1.59-.18,2.38-.28,2.5-.33,5.15-.44,7.1-1.45,1.75-.18,2.72-1,4.46-1.31-1.16-.33-1.85.18-2.68.13l-.66-.33c.41-.28.84-.56,1.26-.82a8.57,8.57,0,0,0,3.59-1.48v0c.65-.21,1.14-.47,1-.9-.36-1.13,2.46-1.51,2.6-2.72-.82.28-1.37.45-1.92.63h0a.87.87,0,0,0,0-.28l1.24-.89c-.61-.55-.25-1,.59-1.43.58-.21,1.14-.44,1.72-.67a2,2,0,0,0,1.23-.25h0c2.59-.78,2.56-.92-.41-1.84,0-.15-.08-.29-.11-.45h0a28.86,28.86,0,0,0,6.24-1c1.14-.27.63-.5-.29-.58.4-.77,1.9-.79,3-1.1l2.1-.89c-1.15,0-2-.09-2.83-.1C312.41,28.85,312.56,28.68,313.4,28.68Z"/></g></g></svg>