<svg xmlns="http://www.w3.org/2000/svg" viewBox="0 0 319.02 60"><defs><style>.cls-1{fill:#fbffff;fill-rule:evenodd;}</style></defs><title>boton-extras</title><g id="Capa_2" data-name="Capa 2"><g id="Capa_2-2" data-name="Capa 2"><path class="cls-1" d="M315.15,28.68H319c-2.58-1-5-.22-7.29-.32-1.24-.46-2.28-1.14-4.14-.92h0a11.69,11.69,0,0,0-3.18-.07c-.25-.26-.64-.55-.85-.81a3.82,3.82,0,0,0-.84-.56l-2.31-.87,1.18-.59a6.49,6.49,0,0,0,2.52-.59h0c.81-.3,1.64-.61,1.58-1.2v-.27c1.25-.06,2.59-.06,2.87-.88l-.45-.89h0c.95.07,1.85.27,2.45-.4a16.11,16.11,0,0,1,2.2-1.7l2.37-.87c-.06-.84.6-1.52,1.8-2.08.68-.06,1.59.17,2-.23s-.41-.31-.82-.36l-3-.29v-.89l.61-.59V13c.67-.12,1.26.39,2,.08a2.59,2.59,0,0,0-1.4-.67,3.6,3.6,0,0,0-1.77-.89c.38-.64-1.72-.81-1.19-1.48.86.1,1.12.67,2.28.66A2.48,2.48,0,0,0,314,9.75a2,2,0,0,0-1.56-.65l.36.65h-2.36l-1.78-.6c0-.11-.19-.16-.27-.26.51-.1,1-.2,1.54-.28,1.38-.15-.05-.66.5-.91h0a4.83,4.83,0,0,0,2.4-.83c1.11-.17,2.44.17,3.75-.48-1.56.05-2.69.09-3.82.11a6.32,6.32,0,0,1-.33-.56c.55-.37,1.83-.32,2-.9L314,5c-1.53-.54-3.24-.19-4.85-.24-1.77,0-3.57,0-5.34,0l-3.58-.37a.89.89,0,0,0-.49,0h0c-.6-.38-2.88-.08-1.79-1.12-2.57-1.14-5.73-1.35-9-1.45l-2.18-.08c-2.85-.15-5.49-1-8.5-.54-1.38-.08-2.63-.65-4.13-.28-.85-.05-1.77-.27-2.39.24a2.13,2.13,0,0,0-.57,0,7.56,7.56,0,0,0-3.54-.3c-.37,0-.74,0-1.11,0-2.52-.48-5.25-.17-7.81-.51a16.65,16.65,0,0,0-3.53,0h-4.16a5.62,5.62,0,0,0-.58,0c-1.33.05-2.67.15-4,.14-4,0-7.92-.14-11.88-.14H234c-1.22,0-2.45,0-3.67,0-.12.12,0,.19.11.27h-.11V.31c-.26,0-.53,0-.8,0a7.68,7.68,0,0,0-2.68-.3H212c-.28.08-.28.18,0,.26l14.83,0h0C219.94.23,213,.18,206,.34c-.08.1.08.16.16.24H206v.3H206c.1-.08.23-.18.06-.3,0-.08,0-.15,0-.24h-1.79c-2.66.07-5.37-.23-8,.21h0A.59.59,0,0,0,196,.5a3.34,3.34,0,0,0-.43.05,12.89,12.89,0,0,0-3.51,0c-6.29.07-12.59-.14-18.84.3h-5.71a8.83,8.83,0,0,0-1.15,0l1.84-.4a3.8,3.8,0,0,0-2.48.12c-1.18,0-2.36,0-3.53,0a3,3,0,0,0-1.85.33h0c-2.73.08-5.49-.26-8.19.19h-.28l-17.55.1h-1.25L117,1.26c-3.32.09-6.64.16-10,.26H100.5c-2.18,0-4.37,0-6.55,0H91c-1.18,0-2.37,0-3.56,0H86.23l-5.16-.08h0A37.27,37.27,0,0,0,75,1.23l-4.57-.1a17.1,17.1,0,0,0-4.36-.2C65.51.92,65,.88,64.38.86A65.55,65.55,0,0,0,56.07.55C54.41.08,52.56.41,50.84.24h0c-.92-.3-1.73-.44-2,.31-1.06.71-.9,1.7-2.17,2.39s-1.24,1.41-.39,2.19c0,.08.09.14.23.2l1.74,1.46A7.54,7.54,0,0,0,44,8a1.63,1.63,0,0,0-1.09.59h0a1.54,1.54,0,0,0-1.07.33c-1,.18-2.44-.31-3,.51a.43.43,0,0,1-.16,0l-2.74,0A8.23,8.23,0,0,0,32.86,9a7.39,7.39,0,0,0,3,.75l1,.34c-.15.77-.31,1.55-.47,2.34.09.07.28.14.38.22s-.09,0-.12,0h0l-.76,0-1.74,0h0L31.8,13h0c-2.5.33-5.18.46-7.13,1.46-1.76.18-2.73,1-4.48,1.3,1.16.32,1.84-.18,2.69-.13l.67.32h0l-1.28.84a8.28,8.28,0,0,0-3.61,1.48c-.66.22-1.15.48-1,.93.37,1.11-2.46,1.51-2.6,2.69l1.92-.62a2.93,2.93,0,0,0,0,.29l-1.23.88c.61.56.25,1-.6,1.42-.58.24-1.16.45-1.74.68a2,2,0,0,0-1.22.26c-2.62.78-2.59.91.4,1.85h0c0,.14.08.27.12.42a27.56,27.56,0,0,0-6.29,1c-1.14.26-.63.47.3.55-.41.78-1.91.8-3,1.11l-2.11.9,2.84.1c.43.35.29.53-.58.51H0c2.59,1.05,5,.23,7.29.33h0c1.24.48,2.29,1.15,4.14.93a11.7,11.7,0,0,0,3.18.06c.25.27.65.54.86.81a4.42,4.42,0,0,0,.83.56l2.32.88c-.4.18-.79.37-1.18.58A6.42,6.42,0,0,0,14.9,36h0c-.83.32-1.65.62-1.58,1.23l0,.11v.13c-1.24.08-2.57.08-2.87.9l.45.88h0C10,39.23,9,39,8.45,39.67a14.56,14.56,0,0,1-2.2,1.71h0l-2.38.89h0c.06.82-.6,1.51-1.8,2.07-.68,0-1.59-.18-2,.22s.41.3.81.36l3,.29v.89l-.59.59V47c-.67.12-1.26-.38-2-.07a2.34,2.34,0,0,0,1.41.67,3.47,3.47,0,0,0,1.76.89c-.37.66,1.73.8,1.19,1.48-.85-.1-1.11-.67-2.28-.67a2.59,2.59,0,0,0,1.69,1,1.94,1.94,0,0,0,1.55.63c-.12-.21-.24-.42-.35-.63H8.6l1.76.58h0c0,.12.21.19.29.28-.52.08-1,.19-1.55.28-1.38.13.05.64-.49.91h0a5,5,0,0,0-2.41.82c-1.1.16-2.43-.17-3.74.49l3.83-.13c.1.2.21.38.31.57.27.11.54.2.8.32h0c0-.29-.16-.45-.8-.32-.54.36-1.82.34-2,.9.14,0,.27,0,.41,0,1.54.52,3.22.19,4.84.23h5.34c1.19.11,2.39.22,3.58.36a.93.93,0,0,0,.5,0h0c.58.38,2.88.08,1.79,1.12,2.57,1.13,5.73,1.36,9,1.46l2.19.06h0c2.84.15,5.48,1,8.48.56,1.38.07,2.64.62,4.14.29.84,0,1.76.24,2.39-.25a3.55,3.55,0,0,0,.57,0,7.4,7.4,0,0,0,3.53.3l1.12,0c2.51.47,5.24.18,7.81.52a15.35,15.35,0,0,0,3.52,0l4.18,0h.57c1.32-.05,2.65-.14,4-.14,4,0,7.91.14,11.88.14.21,0,.42,0,.63,0,1.23,0,2.45,0,3.67,0,.12-.1,0-.18-.11-.28h.11v.28c.27,0,.53,0,.79,0a7.56,7.56,0,0,0,2.7.31H107c.28-.09.28-.17,0-.26q-7.41,0-14.81,0h0c7,.1,13.89.13,20.85,0,.09-.1-.08-.16-.15-.25H113v-.29h.07c-.11.09-.23.19-.07.29,0,.09,0,.16,0,.25h1.8c2.66-.08,5.37.21,8-.22h0c.06,0,.13.06.19.06s.29-.06.43-.06a13,13,0,0,0,3.52,0c6.29-.07,12.59.16,18.84-.28l5.71,0a10.86,10.86,0,0,0,1.14,0c-.61.11-1.22.24-1.83.37a3.75,3.75,0,0,0,2.48-.11c1.18,0,2.35,0,3.53,0,.2-.08.19-.15,0-.26h0a2.53,2.53,0,0,1,0,.28,3,3,0,0,0,1.85-.34h0c2.82-.09,5.68.32,8.46-.2l17.55-.1h1.26l16.06,0c3.32-.1,6.64-.18,10-.26h1.23c1.79,0,3.55,0,5.31,0h13c.42,0,.84,0,1.24,0l5.16.08a.27.27,0,0,1,.09,0,38.67,38.67,0,0,0,6,.2l4.55.1a18.14,18.14,0,0,0,4.37.21l1.68,0a65.62,65.62,0,0,0,8.31.32c1.66.49,3.51.14,5.25.3.9.32,1.71.47,1.94-.3,1.06-.71.89-1.69,2.17-2.39s1.23-1.4.4-2.17c0-.1-.09-.16-.24-.21-.58-.48-1.15-1-1.74-1.47A7.41,7.41,0,0,0,275.05,52a1.55,1.55,0,0,0,1.09-.57h0a1.39,1.39,0,0,0,1.06-.33c1-.19,2.44.3,3-.52h.16c.91,0,1.83,0,2.73,0a8.85,8.85,0,0,0,3.1.38,6.8,6.8,0,0,0-3-.74l-1-.35c.16-.78.33-1.56.47-2.33-.09-.1-.28-.15-.39-.25.06,0,.1,0,.14,0h0l.74,0c.59,0,1.17,0,1.76,0,.79-.08,1.6-.18,2.39-.28,2.51-.33,5.18-.44,7.14-1.45,1.76-.18,2.74-1,4.48-1.31-1.16-.33-1.85.18-2.69.13-.22-.12-.45-.21-.67-.33.41-.28.85-.56,1.27-.82a8.6,8.6,0,0,0,3.61-1.48v0c.66-.21,1.15-.47,1-.9-.35-1.13,2.48-1.51,2.62-2.72l-1.93.63h0a.87.87,0,0,0-.05-.28l1.25-.89c-.62-.55-.26-1,.59-1.43.59-.21,1.15-.44,1.73-.67a1.93,1.93,0,0,0,1.23-.25h0c2.62-.78,2.58-.92-.4-1.84l-.12-.45h0a28.53,28.53,0,0,0,6.28-1c1.15-.27.64-.5-.3-.58.41-.77,1.92-.79,3-1.1l2.11-.89c-1.15,0-2-.09-2.84-.1C314.15,28.85,314.31,28.68,315.15,28.68Z"/></g></g></svg>